<?xml version="1.0" standalone="no"?>
<!DOCTYPE svg PUBLIC "-//W3C//DTD SVG 20010904//EN"
 "http://www.w3.org/TR/2001/REC-SVG-20010904/DTD/svg10.dtd">
<svg version="1.0" xmlns="http://www.w3.org/2000/svg"
 width="1024.000000pt" height="1024.000000pt" viewBox="0 0 1024.000000 1024.000000"
 preserveAspectRatio="xMidYMid meet">
<metadata>
Created by potrace 1.14, written by Peter Selinger 2001-2017
</metadata>
<g transform="translate(0.000000,1024.000000) scale(0.100000,-0.100000)"
fill="#000000" stroke="none">
<path d="M3484 9438 c-176 -134 -357 -308 -464 -448 -19 -25 -37 -47 -40 -50
-17 -16 -70 -90 -83 -117 -9 -17 -22 -37 -30 -45 -12 -12 -27 -36 -80 -128
-35 -60 -97 -188 -97 -199 0 -6 -4 -11 -10 -11 -5 0 -9 -3 -8 -7 3 -10 -42
-123 -55 -141 -5 -7 -7 -15 -3 -19 3 -3 -1 -17 -9 -30 -9 -13 -13 -28 -10 -33
3 -5 1 -11 -4 -14 -5 -3 -12 -23 -16 -43 -4 -21 -11 -43 -16 -49 -5 -6 -8 -22
-6 -35 2 -12 -2 -34 -10 -48 -7 -14 -13 -36 -13 -47 0 -26 -8 -34 -165 -160
-66 -53 -136 -110 -155 -126 -19 -16 -55 -46 -79 -66 -72 -61 -123 -106 -140
-124 -8 -10 -18 -18 -22 -18 -4 0 -29 -21 -55 -47 -88 -86 -265 -248 -275
-251 -5 -2 -9 -8 -9 -12 0 -13 -48 -59 -54 -52 -3 3 -6 1 -6 -5 0 -5 -37 -48
-83 -94 -143 -146 -318 -350 -446 -521 -51 -68 -99 -131 -107 -141 -8 -9 -14
-21 -14 -26 0 -5 -4 -11 -8 -13 -5 -1 -35 -43 -68 -93 -32 -49 -61 -92 -65
-95 -3 -3 -14 -21 -25 -40 -10 -19 -21 -37 -24 -40 -6 -6 -27 -43 -54 -95 -12
-22 -27 -46 -33 -53 -7 -7 -16 -24 -19 -38 -3 -13 -9 -24 -13 -24 -4 0 -13
-16 -20 -35 -7 -19 -17 -35 -22 -35 -5 0 -9 -4 -9 -10 0 -5 -26 -62 -57 -127
-32 -65 -58 -120 -58 -123 -1 -3 -9 -21 -20 -40 -10 -19 -20 -39 -20 -45 -3
-22 -30 -75 -38 -75 -4 0 -5 -4 -2 -10 3 -5 -2 -22 -12 -37 -10 -15 -17 -28
-15 -30 1 -2 -5 -20 -14 -41 -8 -20 -17 -45 -19 -55 -2 -9 -7 -23 -12 -30 -8
-13 -11 -23 -20 -67 -4 -26 -2 -30 16 -30 11 0 21 4 21 8 0 5 12 15 28 23 15
8 36 22 46 32 11 9 25 17 32 17 7 0 19 7 28 15 22 22 257 138 346 170 91 33
147 47 239 59 24 3 46 8 50 11 3 4 6 37 7 75 1 38 5 74 9 80 3 5 8 36 11 67 2
31 8 61 13 67 5 6 7 20 5 31 -1 10 1 24 6 30 5 6 11 22 13 35 3 14 14 46 26
73 11 26 18 47 16 47 -3 0 4 15 15 33 11 17 20 40 20 50 0 9 3 17 8 17 4 0 13
13 20 30 7 16 24 45 37 65 14 19 21 35 17 35 -4 0 -2 4 3 8 6 4 27 31 48 60
89 126 236 272 379 380 32 23 60 42 64 42 3 0 23 13 43 28 20 16 80 50 134 78
55 27 102 56 106 64 4 8 9 33 10 55 1 21 6 44 11 50 5 6 10 23 12 37 2 15 7
30 11 34 4 4 7 16 7 26 0 10 4 26 9 36 17 31 62 131 64 139 0 4 4 13 9 18 4 6
34 44 66 85 98 125 275 279 355 309 23 9 27 6 47 -42 12 -29 30 -70 40 -92 27
-59 59 -155 53 -155 -3 0 -1 -6 5 -12 5 -7 15 -40 22 -73 6 -33 16 -76 21 -95
5 -19 11 -53 13 -75 6 -58 17 -95 30 -97 26 -3 33 -5 70 -21 21 -9 42 -17 47
-17 5 0 37 -13 71 -30 34 -16 67 -30 74 -30 7 0 14 -4 16 -8 2 -4 40 -30 86
-56 45 -27 82 -52 82 -55 0 -4 14 -15 30 -24 42 -25 122 -109 142 -149 56
-113 83 -205 79 -265 -2 -45 18 -80 91 -154 70 -71 128 -136 173 -194 24 -31
30 -49 30 -89 1 -28 -2 -58 -7 -67 -4 -9 -9 -32 -11 -50 -2 -19 -6 -39 -9 -44
-3 -6 -11 -32 -18 -60 -14 -51 -41 -105 -68 -137 -8 -10 -12 -18 -8 -18 4 0
-2 -10 -14 -22 -11 -12 -20 -26 -20 -32 0 -5 -2 -7 -5 -4 -3 3 -25 -14 -49
-36 -62 -59 -172 -111 -256 -122 -19 -2 -48 -8 -65 -13 -16 -5 -48 -9 -69 -10
-22 0 -58 -3 -80 -7 -23 -4 -86 -7 -142 -8 -94 -1 -103 -3 -140 -30 -132 -98
-214 -227 -218 -346 -1 -14 -4 -29 -7 -35 -6 -11 -2 -286 5 -350 6 -56 32
-190 36 -190 1 0 3 -16 5 -35 2 -19 9 -62 15 -95 9 -52 23 -136 33 -211 2 -11
5 -24 8 -30 10 -19 2 -350 -9 -399 -16 -70 -25 -108 -27 -120 -8 -37 -50 -145
-57 -145 -4 0 -5 -6 -2 -14 3 -7 -2 -20 -10 -29 -9 -9 -16 -21 -16 -27 0 -6
-28 -53 -63 -103 -92 -135 -111 -162 -119 -165 -5 -2 -8 -10 -8 -17 0 -7 -7
-16 -16 -19 -9 -4 -14 -9 -11 -12 3 -4 -3 -15 -14 -27 -10 -11 -19 -26 -19
-32 0 -5 -11 -19 -25 -29 -14 -10 -25 -24 -25 -31 0 -6 -11 -25 -25 -41 -14
-16 -25 -34 -25 -41 0 -6 -4 -13 -9 -15 -7 -3 -32 -39 -149 -223 -14 -22 -24
-42 -23 -44 2 -2 -1 -7 -7 -10 -10 -7 -87 -143 -85 -151 1 -3 -5 -12 -12 -20
-7 -8 -27 -43 -43 -78 -16 -34 -35 -69 -42 -77 -7 -8 -9 -15 -6 -15 4 0 1 -10
-6 -22 -7 -13 -13 -25 -13 -28 0 -3 -11 -27 -23 -55 -20 -43 -98 -274 -122
-360 -17 -58 -42 -254 -35 -265 3 -5 1 -11 -3 -14 -15 -9 -2 -313 15 -356 3
-8 8 -26 10 -40 2 -14 8 -37 14 -52 6 -15 9 -30 6 -35 -3 -5 1 -16 8 -26 12
-17 13 -17 20 0 5 10 10 34 12 53 3 19 11 54 19 78 7 23 13 46 12 50 0 4 2 14
5 22 3 8 13 37 22 64 9 27 27 73 40 103 14 29 25 58 25 62 0 5 3 11 8 13 4 2
21 30 38 63 17 33 53 93 80 134 27 41 56 86 64 101 8 15 30 45 48 67 17 23 32
46 32 52 0 6 3 11 8 11 4 0 23 24 42 52 19 29 40 59 47 68 42 54 133 181 143
199 6 12 19 30 28 40 27 28 52 61 52 67 0 8 44 69 53 72 4 2 7 10 7 18 0 8 5
14 10 14 6 0 10 4 10 9 0 5 27 49 59 98 32 49 68 105 79 125 11 19 26 46 34
59 7 13 16 26 19 29 4 3 17 25 29 50 12 25 25 47 29 50 3 3 19 30 34 60 15 30
51 100 79 155 29 55 52 102 53 105 1 3 15 34 32 70 35 72 65 140 69 155 1 6
10 28 19 50 32 73 38 90 39 100 1 6 9 27 19 49 9 21 17 46 17 55 0 10 6 26 14
36 8 11 12 25 9 31 -2 7 0 15 6 19 6 3 11 12 11 20 0 8 5 26 11 42 7 15 13 35
14 43 6 31 51 195 56 205 4 6 5 21 4 35 -1 14 1 30 6 36 5 6 11 33 14 60 3 27
10 81 16 119 6 39 11 87 12 108 1 20 4 37 7 37 10 0 3 406 -8 455 -6 28 -13
74 -15 103 -4 52 -4 52 45 94 26 24 61 49 77 58 120 64 193 100 236 115 28 9
59 21 70 25 21 9 52 16 125 26 24 3 49 8 54 12 26 16 467 15 492 -1 6 -3 40
-9 75 -12 35 -2 75 -7 89 -10 14 -3 39 -6 55 -7 17 0 39 -5 50 -11 11 -6 36
-11 55 -12 19 -2 78 -10 130 -20 86 -15 124 -21 200 -30 14 -2 25 -4 25 -6 0
-1 32 -3 70 -4 246 -10 319 4 394 74 26 26 94 89 151 141 249 227 366 356 415
455 34 69 35 74 36 133 1 90 -36 139 -166 219 -49 31 -105 66 -122 80 -18 13
-33 21 -33 18 0 -3 -20 8 -44 25 -25 16 -47 30 -50 30 -3 0 -36 19 -73 43 -38
24 -72 45 -78 46 -5 1 -17 8 -25 16 -8 7 -30 20 -49 30 -19 9 -39 21 -45 26
-20 17 -187 119 -195 119 -4 0 -17 9 -29 21 -12 11 -27 17 -32 14 -6 -3 -10
-2 -10 3 0 9 -48 43 -96 67 -68 34 -214 129 -220 143 -7 16 -16 61 -29 147 -3
22 -9 47 -12 55 -3 8 -9 35 -13 60 -5 25 -11 63 -15 85 -4 22 -9 47 -12 55 -3
8 -8 35 -10 60 -2 25 -8 49 -14 54 -5 6 -9 21 -9 34 0 35 -21 102 -32 102 -5
0 -6 5 -3 10 3 6 2 10 -2 10 -5 0 -17 16 -27 35 -11 19 -23 35 -28 35 -4 0 -7
4 -6 8 10 31 -351 393 -497 500 -5 4 -30 23 -55 43 -65 51 -239 169 -250 169
-6 0 -10 4 -10 9 0 5 -9 13 -21 16 -11 4 -35 16 -52 28 l-32 21 -2 171 c-1 93
-4 195 -7 225 -18 185 -26 252 -32 262 -4 6 -8 33 -9 62 -1 28 -5 58 -8 66 -3
8 -11 47 -17 85 -6 39 -16 88 -21 110 -6 22 -11 51 -13 65 -1 14 -5 32 -8 40
-3 8 -11 42 -18 75 -25 116 -50 185 -70 185 -9 0 -66 -37 -126 -82z m1046
-2460 c14 -46 21 -196 9 -204 -4 -2 -10 -22 -14 -43 -7 -41 -29 -59 -50 -41
-13 11 -136 40 -190 45 -16 2 -32 4 -35 5 -3 1 -33 2 -67 2 -60 0 -62 1 -50
21 20 36 123 135 176 171 28 19 51 33 51 31 0 -2 28 9 63 25 82 40 91 39 107
-12z"/>
<path d="M4083 9501 c-15 -9 -23 -40 -13 -46 5 -3 7 -14 5 -25 -2 -11 0 -22 6
-25 5 -4 9 -20 9 -36 0 -17 4 -38 9 -47 5 -9 10 -33 12 -52 2 -19 6 -39 10
-45 4 -5 9 -28 13 -50 3 -22 10 -69 16 -105 6 -36 12 -76 15 -90 2 -14 6 -41
10 -60 13 -78 23 -175 19 -182 -2 -4 -1 -9 4 -12 4 -2 9 -44 11 -93 1 -48 4
-91 7 -94 2 -4 6 -51 9 -105 3 -53 10 -103 17 -111 6 -8 37 -31 67 -51 69 -46
141 -97 162 -117 9 -8 19 -15 23 -15 4 0 13 -6 20 -12 22 -21 60 -52 82 -68
91 -64 335 -307 434 -432 8 -10 25 -31 37 -46 l23 -27 637 1 c351 1 732 2 846
3 115 1 213 -2 219 -5 6 -4 31 -8 57 -10 119 -9 193 -20 241 -36 8 -3 33 -11
55 -17 119 -36 308 -139 411 -223 58 -46 161 -154 206 -216 60 -80 111 -159
107 -164 -2 -2 6 -16 19 -32 12 -16 22 -32 22 -37 0 -4 5 -20 12 -36 6 -15 12
-30 13 -33 0 -3 6 -14 12 -25 5 -11 16 -45 23 -75 7 -30 15 -59 19 -65 3 -5 7
-21 8 -35 1 -14 7 -47 12 -75 20 -100 18 -329 -4 -415 -4 -14 -8 -36 -10 -50
-4 -28 -37 -140 -53 -181 -24 -61 -86 -184 -93 -187 -5 -2 -9 -9 -9 -15 0 -14
-104 -151 -165 -219 -53 -58 -174 -155 -255 -205 -90 -54 -250 -129 -250 -117
0 3 -10 -1 -22 -7 -13 -7 -32 -14 -43 -16 -11 -1 -49 -10 -85 -19 -104 -25
-185 -29 -526 -26 l-322 2 -104 -93 c-57 -50 -126 -116 -154 -144 -44 -45
-144 -105 -144 -86 0 3 -6 1 -12 -5 -12 -9 -103 -32 -158 -39 -86 -10 -273 -3
-410 16 -41 6 -95 13 -120 16 -25 3 -61 10 -80 15 -19 5 -51 12 -70 14 -19 3
-62 10 -95 16 -124 22 -133 23 -270 40 -160 20 -406 14 -473 -11 -12 -5 -26
-8 -30 -8 -4 1 -10 0 -14 -1 -5 -1 -11 -3 -15 -4 -27 -6 -129 -41 -133 -46 -3
-3 -24 -14 -47 -24 -23 -10 -44 -24 -46 -30 -2 -6 -2 -51 0 -101 10 -229 1
-488 -23 -620 -9 -49 -15 -101 -15 -114 1 -13 -3 -29 -9 -36 -5 -6 -12 -29
-14 -51 -3 -21 -12 -66 -21 -98 -8 -33 -17 -67 -19 -75 -2 -9 -5 -23 -8 -31
-10 -27 -42 -135 -44 -150 -2 -8 -7 -23 -13 -35 -5 -11 -19 -49 -31 -85 -12
-36 -26 -76 -32 -90 -6 -14 -14 -34 -18 -45 -5 -11 -17 -41 -29 -67 -12 -26
-21 -54 -21 -61 0 -7 -5 -18 -12 -25 -7 -7 -8 -12 -3 -12 4 0 1 -8 -7 -17 -9
-10 -21 -35 -28 -55 -6 -21 -15 -38 -19 -38 -4 0 -8 -10 -8 -22 -1 -13 -7 -24
-13 -26 -5 -2 -10 -8 -10 -14 0 -13 -79 -181 -89 -188 -3 -3 -21 -36 -40 -74
-19 -38 -57 -106 -83 -150 -27 -45 -49 -83 -50 -86 -1 -5 -22 -39 -99 -160
-27 -41 -52 -80 -57 -86 -5 -5 -15 -21 -22 -34 -7 -13 -21 -33 -31 -44 -11
-11 -19 -25 -19 -32 0 -7 -4 -14 -8 -16 -5 -1 -23 -25 -42 -53 -18 -27 -37
-52 -40 -55 -4 -3 -30 -39 -58 -80 -28 -41 -96 -138 -152 -214 -55 -77 -100
-143 -100 -148 0 -5 -4 -6 -10 -3 -5 3 -10 0 -10 -8 0 -8 -12 -32 -28 -53 -48
-69 -102 -162 -102 -177 0 -8 -7 -18 -16 -21 -9 -4 -15 -9 -12 -12 3 -3 -7
-30 -23 -61 -16 -31 -29 -65 -29 -75 0 -10 -4 -18 -9 -18 -5 0 -11 -15 -15
-33 -6 -35 -14 -62 -16 -62 -2 0 -8 -29 -16 -77 l-6 -38 939 0 940 0 11 22
c10 22 21 61 29 103 2 11 10 38 18 60 17 47 38 124 40 145 1 9 7 25 14 37 6
12 11 32 11 46 0 13 3 27 7 31 4 4 9 19 11 34 2 15 6 29 10 32 4 3 8 14 10 25
2 11 10 41 18 67 8 25 17 58 20 74 3 15 9 34 13 43 5 9 14 41 21 71 7 30 15
60 19 65 3 6 6 17 6 25 0 8 6 25 13 37 7 12 12 32 12 45 1 13 8 41 16 63 9 22
17 47 18 55 2 13 8 35 32 118 2 7 3 13 3 15 0 1 5 16 11 32 13 33 18 50 29
107 5 21 13 44 20 51 6 8 8 16 6 19 -3 3 -1 18 6 34 12 33 49 161 53 184 1 9
5 20 8 25 3 6 11 35 18 65 7 30 16 64 21 75 5 11 12 29 14 40 16 68 43 164 54
189 6 16 9 31 6 34 -2 3 -1 10 4 16 11 15 36 108 33 124 -2 6 1 12 6 12 6 0
12 12 15 27 4 16 10 44 14 63 l8 36 400 0 c220 1 425 3 455 5 30 2 60 1 65 -2
6 -3 66 -4 135 -3 69 2 343 4 610 5 267 1 519 6 560 10 41 4 98 10 127 11 29
2 55 7 58 10 4 4 18 4 32 2 14 -3 39 0 57 5 17 6 49 13 71 17 22 3 67 12 100
19 33 8 71 16 85 19 59 12 167 44 189 55 12 7 25 10 28 7 4 -3 11 -2 17 3 6 5
29 14 51 20 66 20 160 58 216 87 14 7 29 11 33 7 3 -3 6 -1 6 5 0 7 6 12 13
12 15 0 239 114 286 146 20 13 39 24 43 24 7 0 169 107 208 137 8 6 47 35 85
64 39 28 75 57 80 63 6 6 26 23 45 37 19 15 59 50 89 78 30 28 56 51 57 51 2
0 27 25 56 57 29 31 71 75 94 97 22 23 67 75 100 116 32 41 66 82 74 91 27 32
37 45 49 66 6 12 17 27 24 35 15 15 141 206 151 228 3 8 16 31 28 50 38 63
126 238 122 243 -3 2 2 10 11 17 8 7 15 19 15 26 0 7 14 43 30 79 16 36 30 72
30 80 0 8 5 15 11 15 5 0 8 4 5 8 -3 5 1 21 9 36 8 15 14 30 12 34 -1 4 3 21
9 37 24 65 53 162 59 195 3 19 11 51 17 70 7 19 13 44 14 55 0 11 6 40 13 64
7 23 10 49 7 56 -2 7 -1 16 4 21 5 5 11 36 15 69 3 33 8 71 12 85 23 103 22
705 -2 801 -4 15 -8 46 -10 70 -1 24 -5 51 -8 59 -3 8 -9 33 -12 55 -3 22 -8
51 -11 65 -3 14 -7 34 -8 45 -1 11 -5 27 -8 35 -4 8 -9 26 -11 40 -13 59 -29
115 -36 125 -5 5 -9 17 -9 25 -1 24 -18 81 -40 136 -12 29 -18 55 -15 58 4 3
1 6 -5 6 -7 0 -12 7 -12 15 0 8 -10 36 -21 62 -12 27 -25 57 -29 68 -21 55
-158 324 -179 349 -7 9 -11 16 -7 16 3 0 -10 22 -29 50 -19 27 -35 52 -35 55
0 11 -127 185 -215 295 -131 163 -316 346 -485 480 -17 14 -41 33 -53 43 -12
10 -34 26 -49 35 -16 9 -28 20 -28 24 0 4 -7 8 -15 8 -8 0 -15 4 -15 9 0 5
-15 16 -33 24 -18 9 -46 27 -62 41 -17 14 -34 26 -38 26 -5 0 -21 9 -37 20
-57 41 -425 230 -447 230 -4 0 -42 14 -83 31 -41 17 -82 32 -90 34 -8 2 -38
13 -67 23 -28 11 -54 18 -57 15 -2 -2 -14 1 -26 7 -12 6 -29 13 -38 15 -9 3
-35 9 -57 15 -22 6 -58 13 -80 16 -22 4 -49 11 -59 16 -18 10 -38 13 -141 24
-27 3 -57 8 -65 11 -42 17 -358 37 -550 36 -411 -3 -2529 -2 -2551 1 -14 2
-31 1 -36 -3z"/>
</g>
</svg>
