<svg version="1.2" xmlns="http://www.w3.org/2000/svg" viewBox="0 0 800 243" width="800" height="243">
	<title>New Project</title>
	<style>
		.s0 { fill: #d85111 } 
		.s1 { fill: #1d1d1b } 
	</style>
	<path id="Layer copy" class="s0" d="m135.1 75.9c0 12-4.2 23-11.1 31.8-4 5-8.9 9.3-14.6 12.6-7.5 4.4-16.2 6.9-25.6 6.9h-25.6v-25.7-51.3c0-14.1-11.4-25.6-25.6-25.6h51.2c9.4 0 18.1 2.6 25.7 6.9 15.4 8.9 25.6 25.5 25.6 44.4z"/>
	<path id="Layer copy 2" class="s1" d="m160.7 165.6c0 31.1-22 57-51.3 62.9-4.1 0.9-8.4 1.3-12.8 1.3h-64.1-25.6v-25.7-76.9-25.7-51.3c0-14.1 11.5-25.6 25.7-25.6 14.1 0 25.6 11.5 25.6 25.6v51.4 25.6h25.7c9.3 0 18-2.6 25.6-6.9 5.7-3.2 10.6-7.5 14.6-12.6 21.7 10.3 36.7 32.4 36.6 57.9z"/>
	<path id="Layer copy 3" fill-rule="evenodd" class="s0" d="m197.1 172.9h-27v-101.5h20.8c15.1 0 21.4 1.1 27.5 5 7.3 4.7 11.5 12.6 11.5 22.1 0 9.5-3.1 14.8-11.2 19.1 12.9 5.3 17.4 13.1 17.4 25.1-0.1 18.5-12.8 30.2-39 30.2zm-0.5-83.1h-7.7v20.8h6c11.4 0 16.2-3.1 16.2-10.5 0-7-4.8-10.3-14.5-10.3zm1.2 39.1h-8.9v26h9.3c13.2 0 18.8-3.8 18.8-12.6 0.1-9.1-6.1-13.4-19.2-13.4z"/>
	<path id="Layer copy 4" class="s0" d="m243.2 172.9v-76.1h18.3v76.1zm0.2-87.1v-18.3h18.3v18.3z"/>
	<path id="Layer copy 5" class="s0" d="m310.1 174.7c-22.5 0-40.6-17.7-40.6-39.8 0-22.4 17.6-39.8 40.1-39.8 17.4 0 32.4 9.8 38.4 27.2h-20.6c-3.7-7-9.5-10.5-17.7-10.5-12.6 0-21.7 9.6-21.7 22.9 0 13.3 9.5 23.2 22.1 23.2 7.6 0 12.8-3.1 17.4-10h20.5c-6.4 17-20.1 26.8-37.9 26.8z"/>
	<path id="Layer copy 6" fill-rule="evenodd" class="s0" d="m393.5 174.7c-22.2 0-40.4-17.9-40.4-39.8 0-21.9 18.1-39.8 40.3-39.8 22.9 0 40.6 17.7 40.6 40.4 0 21.3-18.4 39.2-40.5 39.2zm0-62.9c-11.9 0-22 10.3-22 22.8 0 13.1 9.8 23.4 22.1 23.4 12.1 0 22-10.3 22-23.1 0-12.7-9.9-23.1-22.1-23.1z"/>
	<path id="Layer copy 7" class="s0" d="m490.6 172.9v-37.2c0-20.3-5.5-23.9-14.6-23.9-5.8 0-10.6 2.4-13.4 7-2.4 3.7-3.1 8.1-3.1 18.3v35.8h-18.3v-76.1h16.9v7.3c6.7-6.5 12.8-9.1 21.4-9.1 10.6 0 18.8 3.8 23.8 11 4.1 5.9 5.5 12.5 5.5 26.1v40.8z"/>
	<path id="Layer copy 8" fill-rule="evenodd" class="s0" d="m556.5 174.7c-22.2 0-40.4-17.9-40.4-39.8 0-21.9 18.1-39.8 40.3-39.8 22.9 0 40.6 17.7 40.6 40.4 0 21.3-18.4 39.2-40.5 39.2zm0-62.9c-11.9 0-22 10.3-22 22.8 0 13.1 9.8 23.4 22.1 23.4 12.1 0 22-10.3 22-23.1 0-12.7-9.9-23.1-22.1-23.1z"/>
	<path id="Layer copy 9" class="s0" d="m700.1 172.9v-41.8c0-15.3-5.8-19.4-14.3-19.4-10.2 0-15.3 5.5-15.3 23.6v37.5h-18.3v-41.8c0-15-5.2-19.4-14.8-19.4-10.6 0-14.8 5.7-14.8 23.6v37.5h-18.3v-76.1h16.7v7.1c5.3-6.5 10.8-8.9 19.8-8.9 10.5 0 17.2 3.6 22.4 11.9 6.2-8.3 13.8-11.9 24.4-11.9 20.1 0 30.8 11.2 30.8 33.9v43.9h-18.3z"/>
	<path id="Layer copy 10" class="s0" d="m751.6 198.3h-19.6l14.3-32.5-27.9-69h20.8l16.9 49.4 18.4-49.4h21z"/>
</svg>