<svg xmlns="http://www.w3.org/2000/svg" width="1192.52" height="320" viewBox="0 0 1192.52 320"><defs><style>.cls-1{fill:#101722;}</style></defs><g id="_01-logotype-light" data-name="01-logotype-light"><g id="symbol"><path id="outer" class="cls-1" d="M316.93,128.79a160,160,0,1,0-9.11,92.44A160.12,160.12,0,0,0,316.93,128.79ZM202.18,246.31H117.82L29.94,160.18l87.88-86.12h84.36l87.88,86.12Z"/><path id="inner" class="cls-1" d="M160,214.26A54.32,54.32,0,0,1,105.74,160h28A26.26,26.26,0,1,0,160,133.74v-28a54.26,54.26,0,0,1,0,108.52Z"/></g><g id="type"><path class="cls-1" d="M405.91,227.08V90.47h83.14c28.09,0,41.17,15.42,41.17,35.32,0,14.84-7.42,25-21.08,29.28,17.57,2.73,27.72,15.8,27.72,33.37,0,23.61-17.57,38.64-46.45,38.64Zm29.66-83.14H482.8c11.9,0,17.76-5.85,17.76-14.24,0-8-5.46-13.66-17.95-13.66h-47Zm0,57.57h51.52c13.27,0,20.3-6.44,20.3-16,0-9.95-7.22-16.59-21.08-16.59H435.57Z"/><path class="cls-1" d="M550.9,176.14c0-30.64,22.44-53.08,58.16-53.08s58.34,22.44,58.34,53.08-22.63,53.28-58.34,53.28S550.9,206.78,550.9,176.14Zm87.43,0c0-15.8-11.12-28.49-29.27-28.49-18,0-29.08,12.69-29.08,28.49,0,16,11.12,28.69,29.08,28.69C627.21,204.83,638.33,192.15,638.33,176.14Z"/><path class="cls-1" d="M731,123.06c19.71,0,33,12.49,36.88,29.66V125.4h29.47v80.4c0,35.52-20.3,56.4-58.94,56.4-18.92,0-37.27-5.46-49.76-13.46L682.43,215c13.66,13.27,33,22.63,53.86,22.63,24.19,0,31.61-13.27,31.61-34.15v-11.9c-3.32,15.8-18.34,28.29-36.88,28.29-32,0-49.18-21.26-49.18-47.61C681.84,145.31,699.21,123.06,731,123.06Zm8,74.16c14.44,0,23.61-6.05,28.88-15.42V162.68c-5.07-9-14.64-15.61-28.88-15.61-18.93,0-27.91,11.7-27.91,25.17C711.11,185.51,720.09,197.22,739,197.22Z"/><path class="cls-1" d="M865.86,123.06c19.71,0,33,12.49,36.88,29.66V125.4h29.47v80.4c0,35.52-20.3,56.4-58.94,56.4-18.92,0-37.27-5.46-49.76-13.46L817.27,215c13.66,13.27,33,22.63,53.86,22.63,24.19,0,31.61-13.27,31.61-34.15v-11.9c-3.31,15.8-18.34,28.29-36.88,28.29-32,0-49.18-21.26-49.18-47.61C816.68,145.31,834.05,123.06,865.86,123.06Zm8,74.16c14.44,0,23.61-6.05,28.88-15.42V162.68c-5.07-9-14.64-15.61-28.88-15.61-18.93,0-27.91,11.7-27.91,25.17C846,185.51,854.93,197.22,873.86,197.22Z"/><path class="cls-1" d="M1062.37,182H980.8c2.34,15,14.44,23.8,36.1,23.8,18.15,0,34-6.63,44.88-17.17l-5.46,29.86c-9.37,6.63-24.78,10.93-42.74,10.93-40.2,0-62.05-21.86-62.05-53.28,0-29.66,20.88-53.08,57.57-53.08,35.12,0,53.27,22.83,53.27,53.86Zm-80.79-17.76h53.08c-2.34-11.52-10.35-20.88-25.76-20.88S984.51,152.33,981.58,164.24Z"/><path class="cls-1" d="M1125.39,123.06c20.3,0,32.79,12.3,37.86,29.27V84.62l29.27-3.71V227.08h-29.27V200.14c-5.07,17.18-17.56,29.28-37.86,29.28-30.24,0-49.37-22.06-49.37-53.28C1076,145.11,1095.15,123.06,1125.39,123.06Zm9.17,81.77a32.57,32.57,0,0,0,28.69-16.2V163.85a32.25,32.25,0,0,0-28.49-16.2c-19.9,0-29.66,13.08-29.66,28.49C1105.1,191.75,1114.86,204.83,1134.56,204.83Z"/></g></g></svg>