<svg width="215" height="43" viewBox="0 0 215 43" fill="none" xmlns="http://www.w3.org/2000/svg">
<g clip-path="url(#clip0_301_1891)">
<path d="M35.9338 8.83594C33.7598 8.07666 31.1829 7.77632 29.0693 8.73622C31.887 9.236 32.6927 12.8175 31.4043 18.6142C35.6108 19.8733 38.0461 20.9396 38.7309 23.1586C38.7515 22.9195 38.7914 22.5651 38.812 22.3248C39.0527 19.8259 39.2535 17.6109 39.435 14.8921C39.6576 11.354 37.5634 9.41501 35.9338 8.83594Z" fill="url(#paint0_linear_301_1891)"/>
<path d="M9.51467 24.6834C7.09898 23.8304 2.00061 21.8139 0.932617 18.1831C0.980295 23.2688 1.76222 31.6167 4.50847 34.475C4.51462 34.4721 4.50229 34.4779 4.50847 34.475C7.97714 39.0016 13.831 41.391 20.0094 43.0012C25.0833 41.6809 29.4919 39.2625 32.7923 35.8842C33.7383 34.6444 34.826 32.8459 34.8465 31.3057C35.0074 23.2492 31.5437 23.9689 28.3631 27.8469C27.8654 35.4877 20.2333 35.2502 13.1022 31.7896C11.4241 30.7361 10.4282 30.0276 9.84111 29.3269C9.01055 27.7619 9.26997 26.2631 9.51467 24.6834Z" fill="url(#paint1_linear_301_1891)"/>
<path d="M9.51467 24.6834C7.09898 23.8304 2.00061 21.8139 0.932617 18.1831C0.980295 23.2688 1.76222 31.6167 4.50847 34.475C4.51462 34.4721 4.50229 34.4779 4.50847 34.475C7.97714 39.0016 13.831 41.391 20.0094 43.0012C25.0833 41.6809 29.4919 39.2625 32.7923 35.8842C33.7383 34.6444 34.826 32.8459 34.8465 31.3057C35.0074 23.2492 31.5437 23.9689 28.3631 27.8469C27.8654 35.4877 20.2333 35.2502 13.1022 31.7896C11.4241 30.7361 10.4282 30.0276 9.84111 29.3269C9.01055 27.7619 9.26997 26.2631 9.51467 24.6834Z" fill="url(#paint2_linear_301_1891)"/>
<g filter="url(#filter0_i_301_1891)">
<path fill-rule="evenodd" clip-rule="evenodd" d="M7.22741 9.57523C16.4268 7.21691 27.2171 7.43677 35.9338 10.5147C37.5646 11.0938 39.5173 12.3132 39.4362 14.8926C39.6782 11.2944 39.8585 7.67584 40 4.07769C28.4052 -1.35858 11.5948 -1.35858 0 4.07769C0.100414 6.45644 0.200829 8.77511 0.32181 11.0349C0.96543 22.8097 19.3848 25.5681 28.364 27.8471C30.7401 28.4466 32.7726 28.9067 33.5783 31.5654C34.0405 33.0443 33.7392 34.6434 32.7919 35.8832C35.2079 33.3843 37.0202 30.346 38.0268 26.8271C37.6639 21.6095 29.2702 20.5499 20.7942 18.5904C13.5075 16.9121 7.18628 14.2342 7.22741 9.57523Z" fill="url(#paint3_linear_301_1891)"/>
<path fill-rule="evenodd" clip-rule="evenodd" d="M7.22741 9.57523C16.4268 7.21691 27.2171 7.43677 35.9338 10.5147C37.5646 11.0938 39.5173 12.3132 39.4362 14.8926C39.6782 11.2944 39.8585 7.67584 40 4.07769C28.4052 -1.35858 11.5948 -1.35858 0 4.07769C0.100414 6.45644 0.200829 8.77511 0.32181 11.0349C0.96543 22.8097 19.3848 25.5681 28.364 27.8471C30.7401 28.4466 32.7726 28.9067 33.5783 31.5654C34.0405 33.0443 33.7392 34.6434 32.7919 35.8832C35.2079 33.3843 37.0202 30.346 38.0268 26.8271C37.6639 21.6095 29.2702 20.5499 20.7942 18.5904C13.5075 16.9121 7.18628 14.2342 7.22741 9.57523Z" fill="url(#paint4_linear_301_1891)"/>
</g>
</g>
<path d="M71.5487 19.5853C73.9812 19.5853 75.8303 20.0588 77.0959 21.0059C78.3616 21.9324 78.9944 23.3426 78.9944 25.2368C78.9944 26.2868 78.8362 27.2338 78.5198 28.0779C78.2034 28.9221 77.6991 29.6324 77.0069 30.2088C76.3148 30.7853 75.4248 31.2279 74.3372 31.5368C73.2692 31.8456 71.9838 32 70.4808 32H52L55.9453 26.6882H70.9554C71.6872 26.6882 72.2211 26.575 72.5573 26.3485C72.8935 26.1015 73.0616 25.7103 73.0616 25.175C73.0616 24.6397 72.8935 24.2588 72.5573 24.0324C72.2211 23.8059 71.6872 23.6926 70.9554 23.6926H60.1577C58.8722 23.6926 57.7647 23.5485 56.8353 23.2603C55.9058 22.9721 55.1345 22.5706 54.5215 22.0559C53.9084 21.5412 53.4535 20.9235 53.1569 20.2029C52.8603 19.4618 52.7119 18.6485 52.7119 17.7632C52.7119 16.7956 52.8702 15.9206 53.1866 15.1382C53.5228 14.3353 54.0271 13.6559 54.6994 13.1C55.3916 12.5441 56.2716 12.1118 57.3396 11.8029C58.4272 11.4941 59.7226 11.3397 61.2256 11.3397H78.4605L74.5151 16.7132H60.7509C60.039 16.7132 59.505 16.8162 59.1491 17.0221C58.8129 17.2279 58.6448 17.5985 58.6448 18.1338C58.6448 18.6691 58.8129 19.05 59.1491 19.2765C59.505 19.4824 60.039 19.5853 60.7509 19.5853H71.5487Z" fill="black"/>
<path d="M88.6379 32L92.3459 26.6882H97.3295C97.9228 26.6882 98.5358 26.6882 99.1687 26.6882C99.8213 26.6882 100.385 26.7088 100.86 26.75C100.583 26.3794 100.256 25.9162 99.8806 25.3603C99.5246 24.7838 99.1785 24.2485 98.8424 23.7544L95.2826 18.2882L85.9681 32H78.7003L91.4263 13.3162C91.8416 12.7191 92.3657 12.1838 92.9985 11.7103C93.6313 11.2368 94.4323 11 95.4013 11C96.3308 11 97.102 11.2265 97.7151 11.6794C98.3479 12.1118 98.8819 12.6574 99.317 13.3162L111.717 32H88.6379Z" fill="black"/>
<path d="M135.284 11.3397L123.507 25.175V32H117.337V25.1441L105.234 11.3397H113.125L117.871 17.0838C118.029 17.2691 118.237 17.5162 118.494 17.825C118.751 18.1132 119.018 18.4221 119.295 18.7515C119.572 19.0809 119.829 19.3897 120.066 19.6779C120.303 19.9662 120.471 20.1824 120.57 20.3265C120.768 20.0382 121.055 19.6471 121.43 19.1529C121.806 18.6588 122.35 17.9588 123.062 17.0529L127.571 11.3397H135.284Z" fill="black"/>
<path d="M159.618 11.3397L155.643 16.7132H143.54V19.4H158.491L154.753 24.4338H143.54V32H137.37V11.3397H159.618Z" fill="black"/>
<path d="M184.753 26.6882L180.807 32H161.704V11.3397H184.693L180.718 16.7132H167.874V19.1838H183.596L180.066 23.8779H167.874V26.6882H184.753Z" fill="black"/>
<path d="M215 32H206.783L202.363 26.5338H192.93V32H186.789V21.4382H204.054C205.003 21.4382 205.804 21.2324 206.457 20.8206C207.109 20.4088 207.436 19.8426 207.436 19.1221C207.436 18.3191 207.139 17.7221 206.546 17.3309C205.952 16.9191 205.122 16.7132 204.054 16.7132H186.789L190.794 11.3397H203.55C204.677 11.3397 205.844 11.4529 207.05 11.6794C208.256 11.8853 209.354 12.2662 210.343 12.8221C211.332 13.3779 212.142 14.1294 212.775 15.0765C213.428 16.0235 213.754 17.2382 213.754 18.7206C213.754 19.5235 213.635 20.2853 213.398 21.0059C213.161 21.7265 212.815 22.375 212.36 22.9515C211.925 23.5279 211.381 24.0221 210.728 24.4338C210.096 24.825 209.374 25.1029 208.563 25.2676C208.899 25.5353 209.275 25.875 209.69 26.2868C210.105 26.6985 210.659 27.2647 211.351 27.9853L215 32Z" fill="black"/>
<defs>
<filter id="filter0_i_301_1891" x="0" y="-1.627" width="40" height="37.5103" filterUnits="userSpaceOnUse" color-interpolation-filters="sRGB">
<feFlood flood-opacity="0" result="BackgroundImageFix"/>
<feBlend mode="normal" in="SourceGraphic" in2="BackgroundImageFix" result="shape"/>
<feColorMatrix in="SourceAlpha" type="matrix" values="0 0 0 0 0 0 0 0 0 0 0 0 0 0 0 0 0 0 127 0" result="hardAlpha"/>
<feOffset dy="-1.62749"/>
<feGaussianBlur stdDeviation="0.813745"/>
<feComposite in2="hardAlpha" operator="arithmetic" k2="-1" k3="1"/>
<feColorMatrix type="matrix" values="0 0 0 0 0.180119 0 0 0 0 0.00232637 0 0 0 0 0.558333 0 0 0 0.4 0"/>
<feBlend mode="normal" in2="shape" result="effect1_innerShadow_301_1891"/>
</filter>
<linearGradient id="paint0_linear_301_1891" x1="36.1343" y1="24.5444" x2="36.5103" y2="13.0216" gradientUnits="userSpaceOnUse">
<stop stop-color="#7813FD"/>
<stop offset="0.60683" stop-color="#560BF5"/>
<stop offset="1" stop-color="#3601A5"/>
</linearGradient>
<linearGradient id="paint1_linear_301_1891" x1="-0.794741" y1="21.8279" x2="29.4994" y2="33.3846" gradientUnits="userSpaceOnUse">
<stop stop-color="#F901FF"/>
<stop offset="0.701095" stop-color="#560BF5"/>
<stop offset="1" stop-color="#3601A5"/>
</linearGradient>
<linearGradient id="paint2_linear_301_1891" x1="0.261231" y1="19.6646" x2="4.17965" y2="24.4848" gradientUnits="userSpaceOnUse">
<stop stop-color="#4305C6"/>
<stop offset="1" stop-color="#4305C6" stop-opacity="0"/>
</linearGradient>
<linearGradient id="paint3_linear_301_1891" x1="-1.30718" y1="2.48283" x2="48.0863" y2="45.1328" gradientUnits="userSpaceOnUse">
<stop stop-color="#F901FF"/>
<stop offset="0.489186" stop-color="#560BF5"/>
<stop offset="1" stop-color="#4807D2"/>
</linearGradient>
<linearGradient id="paint4_linear_301_1891" x1="-1.41791" y1="6.42041" x2="7.09191" y2="13.3602" gradientUnits="userSpaceOnUse">
<stop stop-color="#4305C6"/>
<stop offset="1" stop-color="#4305C6" stop-opacity="0"/>
</linearGradient>
<clipPath id="clip0_301_1891">
<rect width="40" height="43" fill="black"/>
</clipPath>
</defs>
</svg>
