<?xml version="1.0" encoding="utf-8"?>
<!-- Generator: Adobe Illustrator 23.0.3, SVG Export Plug-In . SVG Version: 6.00 Build 0)  -->
<svg version="1.2" baseProfile="tiny" id="Layer_1" xmlns="http://www.w3.org/2000/svg" xmlns:xlink="http://www.w3.org/1999/xlink"
	 x="0px" y="0px" viewBox="0 0 64 64" xml:space="preserve">
<g>
	<path fill="#00D632" d="M41.7,0c6.4,0,9.6,0,13.1,1.1c3.8,1.4,6.7,4.3,8.1,8.1C64,12.7,64,15.9,64,22.3v19.4c0,6.4,0,9.6-1.1,13.1
		c-1.4,3.8-4.3,6.7-8.1,8.1C51.3,64,48.1,64,41.7,64H22.3c-6.4,0-9.6,0-13.1-1.1c-3.8-1.4-6.7-4.3-8.1-8.1C0,51.3,0,48.1,0,41.7
		V22.3c0-6.4,0-9.6,1.1-13.1c1.4-3.8,4.3-6.7,8.1-8.1C12.7,0,15.9,0,22.3,0C22.3,0,41.7,0,41.7,0z"/>
	<path fill="#FFFFFF" d="M42.5,23.8c0.5,0.5,1.3,0.5,1.8,0l2.5-2.6c0.5-0.5,0.5-1.4-0.1-1.9c-2-1.7-4.2-3-6.7-3.8l0.8-3.8
		c0.2-0.8-0.5-1.6-1.3-1.6h-4.8c-0.6,0-1.2,0.4-1.3,1.1l-0.7,3.4c-6.4,0.3-11.9,3.6-11.9,10.3c0,5.8,4.5,8.3,9.3,10
		c4.5,1.7,6.9,2.4,6.9,4.8c0,2.5-2.4,4-5.9,4c-3.2,0-6.6-1.1-9.2-3.7c-0.5-0.5-1.3-0.5-1.8,0c0,0,0,0,0,0l-2.7,2.7
		c-0.5,0.5-0.5,1.4,0,1.9c2.1,2.1,4.8,3.6,7.8,4.4l-0.7,3.6c-0.2,0.8,0.4,1.6,1.3,1.6l4.9,0c0.6,0,1.2-0.4,1.3-1.1l0.7-3.4
		c7.7-0.5,12.5-4.8,12.5-11c0-5.7-4.7-8.2-10.4-10.1c-3.3-1.2-6.1-2-6.1-4.5c0-2.4,2.6-3.4,5.3-3.4C37.1,20.5,40.4,21.9,42.5,23.8
		L42.5,23.8z"/>
</g>
</svg>
