<?xml version="1.0" encoding="utf-8"?>
<!-- Generator: Adobe Illustrator 26.0.1, SVG Export Plug-In . SVG Version: 6.00 Build 0)  -->
<svg version="1.1" id="Layer_1" xmlns="http://www.w3.org/2000/svg" xmlns:xlink="http://www.w3.org/1999/xlink" x="0px" y="0px"
	 viewBox="0 0 430.4 430.4" style="enable-background:new 0 0 430.4 430.4;" xml:space="preserve">
<style type="text/css">
	.st0{fill:url(#SVGID_1_);}
	.st1{opacity:0.3;enable-background:new    ;}
	.st2{fill:url(#SVGID_00000045601010951830816150000000225356570049205938_);}
	.st3{fill:url(#SVGID_00000108997890858073029510000002176147930697553050_);}
	.st4{fill:url(#SVGID_00000102535747770841582090000000883858114034429630_);}
	.st5{fill:url(#SVGID_00000001635956804513819270000013991551694662045067_);}
</style>
<linearGradient id="SVGID_1_" gradientUnits="userSpaceOnUse" x1="136.9595" y1="341.9065" x2="107.3414" y2="236.6563" gradientTransform="matrix(1 0 0 -1 0 432.6456)">
	<stop  offset="8.973507e-02" style="stop-color:#70A1D4"/>
	<stop  offset="0.4491" style="stop-color:#447FC2"/>
	<stop  offset="0.6614" style="stop-color:#3E74AF"/>
	<stop  offset="1" style="stop-color:#265281"/>
</linearGradient>
<path class="st0" d="M111.5,209.5c-12.6-16.8-17.4-32-11.5-42.1c7-11.9,27.6-14.2,54.3-8.2c2.5-13.5,6-26,10.1-37.2
	c-36.4-7-65.6-1.6-76.6,17.2c-10.8,18.4-1.9,45.8,20.9,73.7C109.6,211.7,110.5,210.6,111.5,209.5z"/>
<path class="st1" d="M111.5,209.5c-0.7-0.9-1.3-1.8-2-2.7c-0.9,1.2-1.9,2.4-2.8,3.6c0.6,0.8,1.3,1.6,1.9,2.4
	C109.6,211.7,110.5,210.6,111.5,209.5z"/>
<path class="st1" d="M154.3,159.1c2.5-13.5,6-26,10.1-37.2c-4.7-0.9-9.2-1.6-13.7-2.1c-4.3,11.1-7.9,23.5-10.5,36.8
	C144.7,157.2,149.4,158,154.3,159.1z"/>
<linearGradient id="SVGID_00000018936193052937191330000006623821716000954011_" gradientUnits="userSpaceOnUse" x1="337.4801" y1="238.9273" x2="307.2527" y2="131.512" gradientTransform="matrix(1 0 0 -1 0 432.6456)">
	<stop  offset="8.973507e-02" style="stop-color:#70A1D4"/>
	<stop  offset="0.4491" style="stop-color:#447FC2"/>
	<stop  offset="0.6614" style="stop-color:#3E74AF"/>
	<stop  offset="1" style="stop-color:#265281"/>
</linearGradient>
<path style="fill:url(#SVGID_00000018936193052937191330000006623821716000954011_);" d="M320.4,212.9c-7.8,9.3-17.2,18.6-27.8,27.6
	c18.2,20.4,26.2,39.5,19.2,51.4c-5.6,9.6-20.1,13-39.4,10.8c-0.6,1.7-1.1,3.3-1.7,4.9c34.9,6.1,62.7,0.5,73.4-17.8
	C355.3,270.7,345.2,241.8,320.4,212.9z"/>
<path class="st1" d="M320.4,212.9c-7.8,9.3-17.2,18.6-27.8,27.6c2.3,2.6,4.4,5.1,6.4,7.6c10.4-9.1,19.5-18.7,27.1-28.3
	C324.3,217.5,322.4,215.2,320.4,212.9z"/>
<path class="st1" d="M272.3,302.7c-0.6,1.7-1.1,3.3-1.7,4.9c0.3,0.1,0.7,0.1,1,0.2c0.6-1.6,1.2-3.3,1.8-5
	C273.1,302.7,272.7,302.7,272.3,302.7z"/>
<linearGradient id="SVGID_00000027576464084770878570000009081629184281355652_" gradientUnits="userSpaceOnUse" x1="388.2626" y1="211.1845" x2="46.5298" y2="185.2095" gradientTransform="matrix(1 0 0 -1 0 432.6456)">
	<stop  offset="8.882481e-02" style="stop-color:#FDE976"/>
	<stop  offset="0.5171" style="stop-color:#FFE73F"/>
	<stop  offset="0.7036" style="stop-color:#E8D030"/>
	<stop  offset="1" style="stop-color:#BBA312"/>
</linearGradient>
<path style="fill:url(#SVGID_00000027576464084770878570000009081629184281355652_);" d="M153.4,266.8c-25.9,5.5-45.6,3-52.5-8.7
	c-10.2-17.4,11.5-50.1,50.5-80c0.2-2,0.5-3.9,0.7-5.8c-53,39.3-81.5,87.3-65.2,115c11,18.7,39.8,24.1,75.8,17.4
	C158.9,293.3,155.7,280.5,153.4,266.8z"/>
<linearGradient id="SVGID_00000005264867483328423050000008876184567377559950_" gradientUnits="userSpaceOnUse" x1="384.7249" y1="257.7281" x2="42.9921" y2="231.7531" gradientTransform="matrix(1 0 0 -1 0 432.6456)">
	<stop  offset="0" style="stop-color:#FDE976"/>
	<stop  offset="0.163" style="stop-color:#FFE73F"/>
	<stop  offset="1" style="stop-color:#BBA312"/>
</linearGradient>
<path style="fill:url(#SVGID_00000005264867483328423050000008876184567377559950_);" d="M343.3,136.9c-10.8-18.4-39-23.9-74.4-17.6
	c0.5,1.3,1,2.7,1.5,4.1c20.8-2.8,36.3,0.4,42.2,10.5c8.1,13.7-3.7,36.9-28.2,60.8c0.4,6.9,0.7,13.9,0.7,21.1c0,11-0.6,21.7-1.6,32.1
	C333.1,209.2,359,163.6,343.3,136.9z"/>
<g>
	<path class="st1" d="M139.5,269.1c2.5,13.6,6,26.2,10.2,37.6c4.2-0.5,8.6-1.1,13-1.9c-3.9-11.5-7.1-24.2-9.4-37.9
		C148.5,267.9,143.9,268.6,139.5,269.1z"/>
	<path class="st1" d="M151.4,178.2c0.2-2,0.5-3.9,0.7-5.8c-5.7,4.2-11,8.5-16.1,12.9c-0.2,2-0.4,4.1-0.5,6.1
		C140.4,187,145.7,182.5,151.4,178.2z"/>
</g>
<g id="Shadow">
	<path class="st1" d="M284.5,194.6c0.4,6.9,0.7,13.9,0.7,21.1c0,11-0.6,21.7-1.6,32.1c0.7-0.5,1.3-1,2-1.5
		c1.1-10.2,1.6-20.7,1.6-31.6c0-7.4-0.3-14.7-0.8-21.9C285.8,193.3,285.1,194,284.5,194.6z"/>
	<path class="st1" d="M272.2,123.1c-0.5-1.4-1-2.8-1.6-4.2c-0.6,0.1-1.2,0.2-1.7,0.3c0.5,1.3,1,2.7,1.5,4.1
		C271.1,123.2,271.7,123.2,272.2,123.1z"/>
</g>
<linearGradient id="SVGID_00000036944908401219994540000004402942215924522406_" gradientUnits="userSpaceOnUse" x1="253.5119" y1="79.4015" x2="179.1678" y2="361.1263" gradientTransform="matrix(1 0 0 -1 0 432.6456)">
	<stop  offset="9.016052e-02" style="stop-color:#CC296B"/>
	<stop  offset="0.5459" style="stop-color:#FF3387"/>
	<stop  offset="1" style="stop-color:#FF87B9"/>
</linearGradient>
<path style="fill:url(#SVGID_00000036944908401219994540000004402942215924522406_);" d="M217.2,67c-37.5,0-68,66.5-68,148.6
	s30.4,148.6,68,148.6s68-66.5,68-148.6S254.7,67,217.2,67z M235.3,339.4c-25.3,0-45.7-55-45.7-122.8s20.5-122.8,45.7-122.8
	c25.3,0,45.7,55,45.7,122.8S260.6,339.4,235.3,339.4z"/>
</svg>
